<?xml version="1.0" encoding="utf-8"?>
<!-- Generator: Adobe Illustrator 17.0.0, SVG Export Plug-In . SVG Version: 6.00 Build 0)  -->
<!DOCTYPE svg PUBLIC "-//W3C//DTD SVG 1.1//EN" "http://www.w3.org/Graphics/SVG/1.1/DTD/svg11.dtd">
<svg version="1.1" id="icons" xmlns="http://www.w3.org/2000/svg" xmlns:xlink="http://www.w3.org/1999/xlink" x="0px" y="0px"
	 width="512px" height="512px" viewBox="0 0 512 512" enable-background="new 0 0 512 512" xml:space="preserve">
<g>
	<g>
		<path fill="#0972C9" d="M475.992,495.984c-13.232,0-24-10.768-24-24c0-4.424,3.576-8,8-8s8,3.576,8,8c0,4.416,3.584,8,8,8
			s8-3.584,8-8c0-4.424,3.576-8,8-8s8,3.576,8,8C499.992,485.216,489.224,495.984,475.992,495.984z"/>
	</g>
	<g>
		<path fill="#0972C9" d="M460.008,479.984c-4.424,0-8-3.576-8-8V376c0-4.424,3.576-8,8-8s8,3.576,8,8v95.984
			C468.008,476.408,464.432,479.984,460.008,479.984z"/>
	</g>
	<g>
		<path fill="#0972C9" d="M491.992,479.984c-4.424,0-8-3.576-8-8V376c0-4.424,3.576-8,8-8s8,3.576,8,8v95.984
			C499.992,476.408,496.416,479.984,491.992,479.984z"/>
	</g>
	<g>
		<path fill="#0972C9" d="M499.992,384h-47.984c-4.424,0-8-3.576-8-8s3.576-8,8-8h47.984c4.424,0,8,3.576,8,8
			S504.416,384,499.992,384z"/>
	</g>
	<g>
		<path fill="#0972C9" d="M475.992,384c-4.424,0-8-3.576-8-8V272c0-4.424,3.576-8,8-8s8,3.576,8,8v104
			C483.992,380.424,480.416,384,475.992,384z"/>
	</g>
	<g>
		<path fill="#0972C9" d="M475.992,280c-2.048,0-4.096-0.784-5.656-2.344c-3.128-3.128-3.128-8.184,0-11.312l16-16
			c3.128-3.128,8.184-3.128,11.312,0s3.128,8.184,0,11.312l-16,16C480.088,279.216,478.04,280,475.992,280z"/>
	</g>
	<g>
		<path fill="#0972C9" d="M475.992,280c-2.048,0-4.096-0.784-5.656-2.344l-16-16c-3.128-3.128-3.128-8.184,0-11.312
			s8.184-3.128,11.312,0l16,16c3.128,3.128,3.128,8.184,0,11.312C480.088,279.216,478.04,280,475.992,280z"/>
	</g>
	<g>
		<path fill="#0972C9" d="M459.992,264c-0.992,0-2-0.176-2.968-0.568c-4.104-1.64-6.104-6.296-4.464-10.4l16-40.016
			c1.64-4.12,6.336-6.112,10.4-4.464c4.104,1.64,6.104,6.296,4.464,10.4l-16,40.016C466.168,262.104,463.168,264,459.992,264
			L459.992,264z"/>
	</g>
	<g>
		<path fill="#0972C9" d="M491.992,264c-3.168,0-6.176-1.896-7.432-5.032l-16-40.016c-1.64-4.104,0.36-8.76,4.464-10.4
			c4.072-1.64,8.76,0.344,10.4,4.464l16,40.016c1.64,4.104-0.36,8.76-4.464,10.4C493.992,263.824,492.984,264,491.992,264z"/>
	</g>
	<g>
		<g>
			<path fill="#0972C9" d="M396,303.952c-26.472,0-48-21.528-48-48c0-19.032,11.296-36.28,28.792-43.952
				c2.464-1.088,5.328-0.848,7.584,0.632c2.264,1.48,3.624,3.992,3.624,6.696v28.624c0,4.416,3.584,8,8,8s8-3.584,8-8v-28.624
				c0-2.704,1.36-5.216,3.624-6.696c2.248-1.488,5.104-1.728,7.584-0.632C432.696,219.664,444,236.912,444,255.952
				C444,282.424,422.472,303.952,396,303.952z M372,234.832c-5.056,5.736-8,13.192-8,21.12c0,17.648,14.352,32,32,32
				s32-14.352,32-32c0-7.928-2.944-15.392-8-21.128v13.128c0,13.232-10.768,24-24,24s-24-10.768-24-24V234.832z"/>
		</g>
		<g>
			<path fill="#0972C9" d="M396,496.016c-13.232,0-24-10.768-24-24c0-4.424,3.576-8,8-8s8,3.576,8,8c0,4.416,3.584,8,8,8
				s8-3.584,8-8c0-4.424,3.576-8,8-8s8,3.576,8,8C420,485.248,409.232,496.016,396,496.016z"/>
		</g>
		<g>
			<path fill="#0972C9" d="M412,480.016c-4.424,0-8-3.576-8-8V292.624c0-4.424,3.576-8,8-8s8,3.576,8,8v179.392
				C420,476.44,416.424,480.016,412,480.016z"/>
		</g>
		<g>
			<path fill="#0972C9" d="M380,480.016c-4.424,0-8-3.576-8-8V292.624c0-4.424,3.576-8,8-8s8,3.576,8,8v179.392
				C388,476.44,384.424,480.016,380,480.016z"/>
		</g>
	</g>
	<g>
		<g>
			<path fill="#0972C9" d="M12.008,440.016c-4.424,0-8-3.576-8-8C4.008,392.304,36.312,360,76.024,360c4.424,0,8,3.576,8,8
				s-3.576,8-8,8c-30.888,0-56.016,25.128-56.016,56.016C20.008,436.44,16.432,440.016,12.008,440.016z"/>
		</g>
		<g>
			<path fill="#0972C9" d="M347.992,440.016c-4.424,0-8-3.576-8-8c0-30.872-25.128-56-56-56c-4.424,0-8-3.576-8-8s3.576-8,8-8
				c39.704,0,72,32.296,72,72C355.992,436.44,352.416,440.016,347.992,440.016z"/>
		</g>
		<g>
			<path fill="#0972C9" d="M124,376.016L76.024,376c-4.424,0-8-3.584-8-8c0-4.424,3.584-8,8-8L124,360.016c4.424,0,8,3.584,8,8
				C132,372.44,128.416,376.016,124,376.016z"/>
		</g>
		<g>
			<path fill="#0972C9" d="M283.992,376.016L236,376c-4.424,0-8-3.584-8-8c0-4.424,3.584-8,8-8l47.992,0.016c4.424,0,8,3.584,8,8
				C291.992,372.44,288.408,376.016,283.992,376.016z"/>
		</g>
		<g>
			<path fill="#0972C9" d="M12.024,495.984c-4.416,0-8-3.576-8-8l-0.016-55.968c0-4.416,3.576-8,8-8c4.416,0,8,3.576,8,8
				l0.016,55.968C20.024,492.4,16.448,495.984,12.024,495.984z"/>
		</g>
		<g>
			<path fill="#0972C9" d="M347.992,495.984c-4.424,0-8-3.576-8-8v-55.968c0-4.424,3.576-8,8-8s8,3.576,8,8v55.968
				C355.992,492.408,352.416,495.984,347.992,495.984z"/>
		</g>
	</g>
	<g>
		<path fill="#0972C9" d="M124,376.016c-4.424,0-8-3.576-8-8V322.16c0-4.424,3.576-8,8-8c4.424,0,8,3.576,8,8v45.856
			C132,372.44,128.424,376.016,124,376.016z"/>
	</g>
	<g>
		<path fill="#0972C9" d="M236,376c-4.424,0-8-3.576-8-8v-45.84c0-4.424,3.576-8,8-8s8,3.576,8,8V368
			C244,372.424,240.424,376,236,376z"/>
	</g>
	<g>
		<path fill="#0972C9" d="M180,344c-70.576,0-128-57.424-128-128c0-4.424,3.576-8,8-8s8,3.576,8,8c0,61.76,50.24,112,112,112
			s112-50.24,112-112c0-4.424,3.576-8,8-8s8,3.576,8,8C308,286.576,250.576,344,180,344z"/>
	</g>
	<g>
		<path fill="#0972C9" d="M300,159.984c-4.424,0-8-3.576-8-8c0-61.76-50.24-112-112-112s-112,50.24-112,112c0,4.424-3.576,8-8,8
			s-8-3.576-8-8c0-70.576,57.424-128,128-128s128,57.424,128,128C308,156.408,304.424,159.984,300,159.984z"/>
	</g>
	<g>
		<path fill="#0972C9" d="M60,224c-4.424,0-8-3.576-8-8v-32.016c0-4.424,3.576-8,8-8s8,3.576,8,8V216C68,220.424,64.424,224,60,224z
			"/>
	</g>
	<g>
		<path fill="#0972C9" d="M300,224c-4.424,0-8-3.576-8-8v-32.016c0-4.424,3.576-8,8-8s8,3.576,8,8V216
			C308,220.424,304.424,224,300,224z"/>
	</g>
	<g>
		<path fill="#0972C9" d="M0,0"/>
	</g>
	<g>
		<path fill="#0972C9" d="M0,0"/>
	</g>
	<g>
		<path fill="#0972C9" d="M316,191.984H44c-4.424,0-8-3.576-8-8s3.576-8,8-8h272c4.424,0,8,3.576,8,8S320.424,191.984,316,191.984z"
			/>
	</g>
	<g>
		<path fill="#0972C9" d="M316,191.984c-2.176,0-4.352-0.88-5.928-2.624c-0.208-0.216-29.232-29.376-130.072-29.376
			S50.144,189.144,49.856,189.44c-3.04,3.16-8.064,3.344-11.272,0.368c-3.2-2.984-3.456-7.944-0.512-11.192
			c1.28-1.416,32.64-34.624,141.928-34.624s140.648,33.208,141.928,34.624c2.968,3.272,2.72,8.336-0.552,11.304
			C319.84,191.296,317.92,191.984,316,191.984L316,191.984z"/>
	</g>
	<g>
		<path fill="#0972C9" d="M300,181.264c-4.424,0-8-3.576-8-8v-21.28c0-4.424,3.576-8,8-8s8,3.576,8,8v21.28
			C308,177.688,304.424,181.264,300,181.264z"/>
	</g>
	<g>
		<path fill="#0972C9" d="M60,181.264c-4.424,0-8-3.576-8-8v-21.28c0-4.424,3.576-8,8-8s8,3.576,8,8v21.28
			C68,177.688,64.424,181.264,60,181.264z"/>
	</g>
	<g>
		<path fill="#0972C9" d="M180,39.984c-4.424,0-8-3.576-8-8v-8c0-4.424,3.576-8,8-8s8,3.576,8,8v8
			C188,36.408,184.424,39.984,180,39.984z"/>
	</g>
	<g>
		<path fill="#0972C9" d="M180.128,400c-43.784,0-61.904-26.44-62.656-27.56c-2.456-3.68-1.464-8.64,2.216-11.096
			c3.68-2.432,8.6-1.456,11.064,2.168C131.376,364.416,145.36,384,180.128,384c35.312,0,49.208-20.232,49.344-20.44
			c2.448-3.68,7.4-4.672,11.096-2.216c3.68,2.456,4.672,7.416,2.216,11.096C242.032,373.56,223.904,400,180.128,400L180.128,400z"/>
	</g>
	<g>
		<path fill="#0972C9" d="M228.136,496c-4.424,0-8-3.576-8-8c0-22.056-17.944-40-40.008-40s-40.008,17.944-40.008,40
			c0,4.424-3.576,8-8,8s-8-3.576-8-8c0-30.872,25.128-56,56.008-56s56.008,25.128,56.008,56
			C236.136,492.424,232.552,496,228.136,496z"/>
	</g>
	<g>
		<path fill="#0972C9" d="M179.992,128c-17.648,0-32-14.352-32-32s14.352-32,32-32s32,14.352,32,32S197.64,128,179.992,128z
			 M179.992,80c-8.824,0-16,7.176-16,16s7.176,16,16,16s16-7.176,16-16S188.816,80,179.992,80z"/>
	</g>
</g>
</svg>
