<?xml version="1.0" encoding="utf-8"?>
<!-- Generator: Adobe Illustrator 17.0.0, SVG Export Plug-In . SVG Version: 6.00 Build 0)  -->
<!DOCTYPE svg PUBLIC "-//W3C//DTD SVG 1.1//EN" "http://www.w3.org/Graphics/SVG/1.1/DTD/svg11.dtd">
<svg version="1.1" id="Layer_1" xmlns="http://www.w3.org/2000/svg" xmlns:xlink="http://www.w3.org/1999/xlink" x="0px" y="0px"
	 width="480px" height="480px" viewBox="0 0 480 480" enable-background="new 0 0 480 480" xml:space="preserve">
<path fill="#0972C9" d="M456,0H24C10.75,0.016,0.016,10.75,0,24v384c0.016,13.25,10.75,23.984,24,24h432
	c13.25-0.016,23.984-10.75,24-24V24C479.984,10.75,469.25,0.016,456,0z M24,16h432c4.418,0.004,7.996,3.582,8,8v48H16V24
	C16.004,19.582,19.582,16.004,24,16z M456,416H24c-4.418-0.004-7.996-3.582-8-8V88h448v320C463.996,412.418,460.418,415.996,456,416
	z"/>
<path fill="#0972C9" d="M32,32h24v24H32V32z"/>
<path fill="#0972C9" d="M72,32h24v24H72V32z"/>
<path fill="#0972C9" d="M112,32h24v24h-24V32z"/>
<path fill="#0972C9" d="M72,336V208c0.004-4.418,3.582-7.996,8-8h168v-16H80c-13.25,0.016-23.984,10.75-24,24v128
	c0.016,13.25,10.75,23.984,24,24h152v-16H80C75.582,343.996,72.004,340.418,72,336z"/>
<path fill="#0972C9" d="M168,272v-32c-0.016-13.25-10.75-23.984-24-24h-32c-13.25,0.016-23.984,10.75-24,24v32
	c0.016,13.25,10.75,23.984,24,24h32C157.25,295.984,167.984,285.25,168,272z M104,272v-32c0.004-4.418,3.582-7.996,8-8h32
	c4.418,0.004,7.996,3.582,8,8v32c-0.004,4.418-3.582,7.996-8,8h-32C107.582,279.996,104.004,276.418,104,272z"/>
<path fill="#0972C9" d="M184,216h40v16h-40V216z"/>
<path fill="#0972C9" d="M184,248h32v16h-32V248z"/>
<path fill="#0972C9" d="M184,280h32v16h-32V280z"/>
<path fill="#0972C9" d="M112,312h16v16h-16V312z"/>
<path fill="#0972C9" d="M144,312h80v16h-80V312z"/>
<path fill="#0972C9" d="M407.195,178.18c-6.254-6.234-16.371-6.234-22.625,0l-15.281,15.281c-10.453-5.02-21.734-8.09-33.289-9.055
	V168h8c8.832-0.012,15.988-7.168,16-16v-16c-0.012-8.832-7.168-15.988-16-16h-32c-8.832,0.012-15.988,7.168-16,16v16
	c0.012,8.832,7.168,15.988,16,16h8v16.406c-42.02,3.398-76.934,33.754-86.148,74.891s9.418,83.48,45.973,104.48
	s82.523,15.762,113.418-12.918c30.895-28.684,39.523-74.137,21.297-112.148l15.281-15.281c6.242-6.25,6.242-16.375,0-22.625
	L407.195,178.18z M312,152v-16h32v16H312z M328,360c-44.184,0-80-35.816-80-80s35.816-80,80-80s80,35.816,80,80
	C407.949,324.16,372.16,359.949,328,360z M406.16,224.461c-6.23-8.742-13.879-16.391-22.621-22.621l12.344-12.348l22.625,22.625
	L406.16,224.461z"/>
<path fill="#0972C9" d="M322.879,273.855l47.992-40.008l10.25,12.297l-47.992,40.008L322.879,273.855z"/>
</svg>
