<?xml version="1.0" encoding="utf-8"?>
<!-- Generator: Adobe Illustrator 17.0.0, SVG Export Plug-In . SVG Version: 6.00 Build 0)  -->
<!DOCTYPE svg PUBLIC "-//W3C//DTD SVG 1.1//EN" "http://www.w3.org/Graphics/SVG/1.1/DTD/svg11.dtd">
<svg version="1.1" id="Layer_1" xmlns="http://www.w3.org/2000/svg" xmlns:xlink="http://www.w3.org/1999/xlink" x="0px" y="0px"
	 width="512px" height="512px" viewBox="0 0 512 512" enable-background="new 0 0 512 512" xml:space="preserve">
<g>
	<g>
		<path fill="#0972C9" d="M303.029,61.578c-5.378-1.295-10.771,2.01-12.065,7.378c-1.294,5.369,2.009,10.771,7.378,12.065
			C379.394,100.56,436.001,172.514,436.001,256c0,99.252-80.747,180-180,180s-180-80.748-180-180
			c0-83.483,56.604-155.437,137.652-174.978c5.369-1.295,8.672-6.697,7.378-12.065c-1.295-5.369-6.699-8.67-12.065-7.378
			c-42.88,10.339-81.729,35.126-109.39,69.795C71.069,167.103,56.001,210.198,56.001,256c0,110.28,89.72,200,200,200
			s200-89.719,200-200c0-45.803-15.068-88.899-43.577-124.629C384.762,96.703,345.911,71.916,303.029,61.578z"/>
		<path fill="#0972C9" d="M505.976,231.948l-11.699-21.827l1.951-26.984c1.876-17.296-5.023-34.176-18.479-45.184l-19.42-15.902
			l-7.639-23.012c-4.278-17.595-17.641-31.737-34.979-36.974l-23.971-7.242l-18.358-21.22C362.52,20.826,346.079,14.18,329.4,15.819
			l-24.88,2.479L280.063,6.029c-15.072-8.035-33.042-8.042-48.116-0.001l-21.826,11.698l-26.983-1.952
			c-17.303-1.876-34.177,5.024-45.184,18.479l-15.903,19.42L99.04,61.312C81.444,65.59,67.302,78.953,62.065,96.29l-7.241,23.971
			l-21.22,18.359c-12.776,10.862-19.426,27.3-17.785,43.982l2.479,24.88L6.029,231.939c-8.036,15.073-8.042,33.042-0.002,48.117
			l11.699,21.826l-1.952,26.984c-1.875,17.296,5.024,34.175,18.479,45.184l19.42,15.902l7.639,23.012
			c4.277,17.595,17.64,31.737,34.979,36.974l23.97,7.241L138.62,478.4c10.863,12.776,27.297,19.426,43.982,17.784l24.879-2.479
			l24.455,12.267c7.539,4.02,15.803,6.031,24.067,6.031c8.258,0,16.516-2.008,24.051-6.027l21.827-11.698l26.983,1.952
			c17.295,1.872,34.175-5.024,45.185-18.479l15.902-19.42l23.013-7.638c17.594-4.278,31.735-17.641,36.972-34.979l7.242-23.97
			l21.221-18.359c12.776-10.862,19.426-27.3,17.785-43.983l-2.48-24.878l12.268-24.457
			C514.008,264.993,514.016,247.023,505.976,231.948L505.976,231.948z M488.281,270.734c-0.044,0.082-0.087,0.164-0.128,0.246
			l-13.626,27.165c-0.849,1.692-1.2,3.591-1.013,5.476l2.767,27.75c0.998,10.147-3.053,20.157-10.902,26.831l-23.478,20.312
			c-1.432,1.239-2.482,2.858-3.029,4.67l-8.081,26.745c-3.221,10.664-11.972,18.863-22.837,21.396
			c-0.297,0.069-0.591,0.152-0.88,0.248L380.9,440.26c-1.797,0.597-3.388,1.691-4.587,3.156l-17.74,21.666
			c-6.738,8.236-17.089,12.442-27.681,11.25c-0.132-0.015-0.265-0.027-0.396-0.037l-30.062-2.174
			c-1.893-0.136-3.777,0.266-5.445,1.16l-24.364,13.058c-9.188,4.9-20.162,4.88-29.357-0.057c-0.082-0.043-0.164-0.086-0.246-0.127
			l-27.164-13.626c-1.396-0.7-2.932-1.062-4.484-1.062c-0.33,0-0.661,0.016-0.992,0.049l-27.75,2.765
			c-10.146,1.002-20.157-3.053-26.831-10.901l-20.312-23.478c-1.238-1.432-2.858-2.483-4.671-3.03l-26.745-8.079
			c-10.665-3.221-18.863-11.972-21.396-22.838c-0.069-0.297-0.152-0.59-0.248-0.88L71.742,380.9
			c-0.596-1.797-1.69-3.387-3.155-4.586l-21.665-17.741c-8.236-6.738-12.442-17.086-11.25-27.68
			c0.015-0.132,0.027-0.264,0.037-0.397l2.174-30.063c0.137-1.888-0.266-3.776-1.16-5.445l-13.059-24.362
			c-4.9-9.188-4.879-20.162,0.056-29.357c0.044-0.081,0.086-0.163,0.127-0.245l13.626-27.165c0.849-1.692,1.2-3.591,1.012-5.475
			l-2.765-27.752c-0.998-10.147,3.053-20.157,10.902-26.831L70.1,133.489c1.432-1.239,2.482-2.858,3.03-4.67l8.08-26.746
			c3.221-10.664,11.972-18.862,22.838-21.396c0.297-0.069,0.59-0.152,0.88-0.248l26.173-8.688c1.797-0.596,3.387-1.69,4.586-3.155
			l17.742-21.666c6.738-8.235,17.089-12.439,27.68-11.249c0.132,0.015,0.264,0.027,0.396,0.037l30.062,2.174
			c1.883,0.134,3.776-0.266,5.445-1.16l24.363-13.058c9.187-4.9,20.162-4.88,29.356,0.056c0.081,0.043,0.163,0.086,0.246,0.127
			l27.165,13.626c1.692,0.849,3.591,1.201,5.475,1.012l27.751-2.765c10.146-1,20.157,3.053,26.831,10.902L378.511,70.1
			c1.238,1.432,2.858,2.482,4.671,3.03l26.745,8.08c10.664,3.221,18.862,11.973,21.396,22.838c0.069,0.297,0.152,0.59,0.248,0.88
			l8.688,26.173c0.597,1.797,1.69,3.387,3.155,4.586l21.666,17.741c8.236,6.738,12.441,17.085,11.249,27.68
			c-0.015,0.132-0.027,0.264-0.036,0.397l-2.174,30.063c-0.137,1.888,0.266,3.776,1.159,5.445l13.059,24.363
			C493.238,250.566,493.217,261.54,488.281,270.734L488.281,270.734z"/>
		<path fill="#0972C9" d="M212.602,201.516c-1.604-3.38-5.039-5.723-9.029-5.723h-52.837c-5.523,0-10,4.477-10,10v151.366
			c0,5.523,4.477,10,10,10h52.837c4.145,0,7.7-2.521,9.216-6.114c7.623,1.07,15.476,3.238,23.652,5.502
			c12.292,3.403,25.001,6.922,38.206,6.922h57.729c17.846,0,32.307-9.461,38.684-25.31c3.106-7.722,3.65-15.736,1.835-22.445
			c3.32-2.985,6.126-6.701,8.248-11.04c4.301-8.792,5.16-18.679,2.722-27.006c4.544-4.39,7.934-10.187,9.706-17.022
			c1.657-6.39,1.628-12.695,0.154-18.158c9.02-5.306,15.095-14.946,15.095-25.808c0-8.519-3.317-16.369-9.341-22.103
			c-5.784-5.506-13.488-8.539-21.692-8.539l-81.371,0.002c-6.182-7.755-8.106-18.279-4.586-26.75
			c7.224-17.386,6.776-32.103-1.449-47.717c-6.106-11.589-22.524-23.127-36.323-21.157c-8.341,1.192-14.376,7.087-16.146,15.771
			c-0.521,2.555-0.664,5.315-0.829,8.511c-0.408,7.884-0.968,18.682-7.774,31.721c-4.613,8.839-6.152,17.93-7.51,25.951
			C219.854,193.86,218.911,199.395,212.602,201.516L212.602,201.516z M160.736,215.793h32.837v131.366h-32.837V215.793z
			 M241.519,185.708c1.165-6.881,2.369-13.997,5.521-20.034c8.823-16.904,9.57-31.325,10.017-39.941
			c0.119-2.295,0.231-4.463,0.453-5.553c0.001-0.007,0.003-0.015,0.005-0.022c3.469,0.048,12.006,4.731,15.171,10.739
			c5.478,10.396,5.66,18.723,0.676,30.721c-4.495,10.818-4.157,23.371,0.289,34.532c-4.865,0.677-8.613,4.842-8.613,9.893
			c0,5.522,4.478,10,10,10l102.749-0.003c3.047,0,5.854,1.074,7.902,3.024c1.429,1.359,3.131,3.785,3.131,7.617
			c0,5.364-4.917,10.002-10.738,10.129l-25.739,0.56c-5.521,0.12-9.9,4.693-9.78,10.215c0.119,5.448,4.571,9.783,9.994,9.783
			c0.073,0,0.147,0,0.222-0.002l21.436-0.466c0.699,1.981,1.063,5.76-0.409,10.089c-1.253,3.682-4.616,9.858-13.076,9.858
			c-5.522,0-10,4.477-10,10s4.478,10,10,10c1.516,0,3.004-0.094,4.46-0.279c0.124,2.83-0.458,6.145-2.011,9.319
			c-1.836,3.752-5.465,8.226-12.327,8.226c-5.522,0-10,4.477-10,10s4.478,10,10,10c1.035,0,2.059-0.046,3.07-0.137
			c-0.026,1.919-0.416,4.318-1.507,6.942c-1.568,3.774-6.661,12.551-20.037,12.551h-57.729c-10.487,0-21.359-3.01-32.869-6.197
			c-9.159-2.536-18.55-5.134-28.205-6.294V221.755C236.089,217.675,239.193,199.449,241.519,185.708z"/>
		<path fill="#0972C9" d="M256.002,76.001c5.523,0,10-4.477,10-10s-4.477-10-10-10h-0.007c-5.523,0-9.996,4.477-9.996,10
			S250.479,76.001,256.002,76.001z"/>
	</g>
</g>
</svg>
