<?xml version="1.0" encoding="utf-8"?>
<!-- Generator: Adobe Illustrator 17.0.0, SVG Export Plug-In . SVG Version: 6.00 Build 0)  -->
<!DOCTYPE svg PUBLIC "-//W3C//DTD SVG 1.1//EN" "http://www.w3.org/Graphics/SVG/1.1/DTD/svg11.dtd">
<svg version="1.1" id="outline" xmlns="http://www.w3.org/2000/svg" xmlns:xlink="http://www.w3.org/1999/xlink" x="0px" y="0px"
	 width="512px" height="512px" viewBox="0 0 512 512" enable-background="new 0 0 512 512" xml:space="preserve">
<circle fill="#0972C9" cx="112" cy="456" r="8"/>
<circle fill="#0972C9" cx="96" cy="368" r="8"/>
<circle fill="#0972C9" cx="264" cy="368" r="8"/>
<circle fill="#0972C9" cx="424" cy="456" r="8"/>
<path fill="#0972C9" d="M488,384h-18.801l-29.889-67.249c-1.284-2.889-4.148-4.751-7.31-4.751h-80c-4.418,0-8,3.582-8,8v64h-52.305
	c1.457-2.504,2.565-5.196,3.292-8H320c4.418,0,8-3.582,8-8v-40c0-3.443-2.203-6.5-5.47-7.589l-144-48
	c-0.816-0.272-1.67-0.411-2.53-0.411h-48c-0.933,0-1.858,0.163-2.734,0.481l-88,32C34.104,305.631,32,308.636,32,312v40
	c0,3.03,1.712,5.8,4.422,7.155l27.999,14c0.623,3.822,1.939,7.497,3.884,10.845H24c-4.418,0-8,3.582-8,8v32c0,4.418,3.582,8,8,8
	h11.47l21.67,36.116C58.586,470.526,61.19,472,64,472h11.35c8.828,20.241,32.392,29.494,52.634,20.666
	c9.25-4.034,16.632-11.416,20.666-20.666h238.7c8.828,20.241,32.392,29.494,52.634,20.666c9.25-4.034,16.632-11.416,20.666-20.666
	H472c2.122,0,4.157-0.843,5.657-2.343l16-16c1.5-1.5,2.343-3.535,2.343-5.657v-56C496,387.582,492.418,384,488,384z M437.468,352
	H392v-24h34.801L437.468,352z M376,328v32c0,4.418,3.582,8,8,8h60.579l7.111,16H360v-56H376z M344,432v24H240v-24H344z M126.987,376
	h106.025c0.728,2.804,1.836,5.496,3.292,8h-112.61C125.152,381.496,126.259,378.804,126.987,376z M248,368c0-8.837,7.163-16,16-16
	s16,7.163,16,16s-7.163,16-16,16C255.168,383.99,248.01,376.832,248,368z M312,336h-16v16h16v8h-17.013
	c-4.421-17.114-21.878-27.404-38.992-22.983c-11.271,2.911-20.072,11.712-22.983,22.983H152v-40h56c3.03,0,5.8-1.712,7.155-4.422
	l6.04-12.08L312,333.766V336z M129.409,288h45.293l31.16,10.387L203.056,304h-78.774l-7.585-11.377L129.409,288z M48,336h16v-16H48
	v-2.396l53.219-19.353l12.125,18.187c1.484,2.226,3.981,3.563,6.656,3.562h16v40h-9.013c-4.416-17.11-21.866-27.401-38.977-22.985
	c-9.893,2.553-17.972,9.678-21.742,19.175L48,347.056V336z M80,368c0-8.837,7.163-16,16-16s16,7.163,16,16s-7.163,16-16,16
	C87.168,383.99,80.01,376.832,80,368z M32,400h312v16H32V400z M68.529,456L54.13,432h25.892c-5.214,6.914-8.031,15.34-8.022,24
	H68.529z M112,480c-13.255,0-24-10.745-24-24s10.745-24,24-24s24,10.745,24,24C135.985,469.249,125.249,479.985,112,480z
	 M143.978,432H224v24h-72C152.009,447.34,149.192,438.914,143.978,432z M424,480c-13.255,0-24-10.745-24-24s10.745-24,24-24
	s24,10.745,24,24C447.985,469.249,437.249,479.985,424,480z M480,444.687L468.687,456H464c0-22.091-17.909-40-40-40
	s-40,17.909-40,40h-24v-56h120V444.687z"/>
<path fill="#0972C9" d="M256,144c2.428,0,4.724-1.102,6.242-2.997C266.517,135.67,304,88.203,304,64c0-26.51-21.49-48-48-48
	s-48,21.49-48,48c0,24.203,37.483,71.67,41.758,77.003C251.276,142.898,253.572,144,256,144z M224,64c0-17.673,14.327-32,32-32
	s32,14.327,32,32c0,12.175-17.667,39.777-32.001,58.924C241.665,103.785,224,76.189,224,64z"/>
<circle fill="#0972C9" cx="256" cy="64" r="16"/>
<path fill="#0972C9" d="M208,104V88h-96c-4.418,0-8,3.582-8,8v168h16v-56h72v56h16v-64c0-4.418-3.582-8-8-8h-80v-16h32
	c4.418,0,8-3.582,8-8v-64h16v64c0,4.418,3.582,8,8,8h96c2.469,0,4.799-1.14,6.314-3.088L339.912,104h27.731l-45.958,59.088
	c-2.713,3.487-2.085,8.514,1.403,11.226c1.404,1.092,3.133,1.685,4.912,1.685h64v16h-48c-4.418,0-8,3.582-8,8v32
	c0,4.418,3.582,8,8,8h48v16h-48c-4.418,0-8,3.582-8,8v32h16v-24h40v24h16V96c0-4.418-3.582-8-8-8h-96v16h15.643l-43.556,56H192v-56
	H208z M352,224v-16h40v16H352z M392,160h-47.643l43.555-56H392V160z M144,160h-24v-56h24V160z"/>
<path fill="#0972C9" d="M312,296v-96c0-4.418-3.582-8-8-8h-64c-4.418,0-8,3.582-8,8v80h16v-72h48v88H312z"/>
</svg>
