<?xml version="1.0" encoding="utf-8"?>
<!-- Generator: Adobe Illustrator 17.0.0, SVG Export Plug-In . SVG Version: 6.00 Build 0)  -->
<!DOCTYPE svg PUBLIC "-//W3C//DTD SVG 1.1//EN" "http://www.w3.org/Graphics/SVG/1.1/DTD/svg11.dtd">
<svg version="1.1" id="Layer_1" xmlns="http://www.w3.org/2000/svg" xmlns:xlink="http://www.w3.org/1999/xlink" x="0px" y="0px"
	 width="283.46px" height="141.73px" viewBox="0 0 283.46 141.73" enable-background="new 0 0 283.46 141.73" xml:space="preserve">
<g>
	
		<linearGradient id="SVGID_1_" gradientUnits="userSpaceOnUse" x1="256.2704" y1="-145.0996" x2="535.708" y2="-145.0996" gradientTransform="matrix(1 0 0 -1 -254.27 -94.135)">
		<stop  offset="0" style="stop-color:#1C75BC"/>
		<stop  offset="1" style="stop-color:#27AAE1"/>
	</linearGradient>
	<path fill="url(#SVGID_1_)" d="M2.517,47.265c-1.555-2.612,0.618-5.866,3.622-5.426l24.852,3.586
		c2.802,0.404,5.688,0.071,8.276-1.092v0.012l17.028-6.626v-0.012l49.028-17.621c2.422-0.902,4.963-1.449,7.54-1.591l36.168-2.054
		c5.735-0.321,11.458,0.89,16.564,3.526l40.621,20.922c3.051,1.567,6.293,2.719,9.642,3.396l39.433,8.074
		c0,0,23.57,3.443,26.147,27.904c0,0-16.624-18.405-42.153-18.405c-20.779,0-51.949,26.918-72.087,23.356
		s-52.519-24.935-99.646-17.419c0,0,15.377-13.453,88.805,3.562c11.684,3.17,48.493-17.015,48.493-17.015l-45.168-23.748
		c-3.432-1.805-7.35-2.541-11.209-2.102l-36.94,4.168c-1.639,0.19-1.971,2.422-0.451,3.075c8.229,3.527,23.071,10.354,29.222,16.22
		c-0.594-0.178-10.307-3.17-23.32-6.459c-5.735-0.796-11.292-1.152-16.683-1.152c-48.137,0-81.717,29.008-92.296,39.505
		c-1.318,1.318-3.562,0.392-3.562-1.461v-7.872c0-1.829,0.428-3.634,1.259-5.26l1.662-3.301c1.793-3.562,1.65-7.801-0.392-11.221
		L2.517,47.265z"/>
	<g enable-background="new    ">
		<path d="M72.211,104.487c0,9.158-7.428,16.587-16.587,16.587c-9.159,0-16.587-7.429-16.587-16.587
			c0-9.159,7.428-16.588,16.587-16.588C64.783,87.899,72.211,95.328,72.211,104.487z M64.142,104.487
			c0-4.698-3.82-8.518-8.518-8.518s-8.518,3.819-8.518,8.518s3.819,8.518,8.518,8.518S64.142,109.185,64.142,104.487z"/>
	</g>
	<g enable-background="new    ">
		<path d="M254.362,104.487c0,9.158-7.428,16.587-16.587,16.587s-16.587-7.429-16.587-16.587c0-9.159,7.428-16.588,16.587-16.588
			S254.362,95.328,254.362,104.487z M246.292,104.487c0-4.698-3.819-8.518-8.518-8.518s-8.518,3.819-8.518,8.518
			s3.819,8.518,8.518,8.518S246.292,109.185,246.292,104.487z"/>
	</g>
	<g>
		<g>
			
				<linearGradient id="SVGID_2_" gradientUnits="userSpaceOnUse" x1="344.939" y1="-214.76" x2="344.939" y2="-182.48" gradientTransform="matrix(1 0 0 -1 -254.27 -94.135)">
				<stop  offset="0" style="stop-color:#1C75BC"/>
				<stop  offset="1" style="stop-color:#27AAE1"/>
			</linearGradient>
			<path fill="url(#SVGID_2_)" d="M86.634,104.485c0,4.446,3.622,8.071,8.07,8.071h8.07v8.069h-8.07c-8.9,0-16.14-7.241-16.14-16.14
				c0-8.9,7.241-16.14,16.14-16.14h8.07v8.07h-8.07C90.256,96.415,86.634,100.037,86.634,104.485z"/>
		</g>
	</g>
	<g>
		<g>
			
				<linearGradient id="SVGID_3_" gradientUnits="userSpaceOnUse" x1="395.9815" y1="-214.76" x2="395.9815" y2="-182.48" gradientTransform="matrix(1 0 0 -1 -254.27 -94.135)">
				<stop  offset="0" style="stop-color:#1C75BC"/>
				<stop  offset="1" style="stop-color:#27AAE1"/>
			</linearGradient>
			<path fill="url(#SVGID_3_)" d="M157.852,120.625h-9.016l-7.125-14.234l-7.124,14.234h-9.016l16.14-32.28L157.852,120.625z"/>
			
				<linearGradient id="SVGID_4_" gradientUnits="userSpaceOnUse" x1="428.707" y1="-214.76" x2="428.707" y2="-182.48" gradientTransform="matrix(1 0 0 -1 -254.27 -94.135)">
				<stop  offset="0" style="stop-color:#1C75BC"/>
				<stop  offset="1" style="stop-color:#27AAE1"/>
			</linearGradient>
			<path fill="url(#SVGID_4_)" d="M186.542,88.345v20.175c0,6.677-5.429,12.105-12.105,12.105s-12.105-5.428-12.105-12.105V88.345
				h8.069v20.175c0,2.225,1.812,4.036,4.036,4.036s4.036-1.811,4.036-4.036V88.345H186.542z"/>
		</g>
	</g>
	<g>
		<g>
			
				<linearGradient id="SVGID_5_" gradientUnits="userSpaceOnUse" x1="459.7455" y1="-214.76" x2="459.7455" y2="-182.48" gradientTransform="matrix(1 0 0 -1 -254.27 -94.135)">
				<stop  offset="0" style="stop-color:#1C75BC"/>
				<stop  offset="1" style="stop-color:#27AAE1"/>
			</linearGradient>
			<path fill="url(#SVGID_5_)" d="M217.581,88.345v8.07h-8.071v24.21h-8.069v-24.21h-8.071v-8.07H217.581z"/>
		</g>
	</g>
	<g>
		<g>
			
				<linearGradient id="SVGID_6_" gradientUnits="userSpaceOnUse" x1="276.6135" y1="-214.762" x2="276.6135" y2="-182.481" gradientTransform="matrix(1 0 0 -1 -254.27 -94.135)">
				<stop  offset="0" style="stop-color:#1C75BC"/>
				<stop  offset="1" style="stop-color:#27AAE1"/>
			</linearGradient>
			<path fill="url(#SVGID_6_)" d="M33.552,112.556v8.071H11.135V88.346h8.07v24.21H33.552z"/>
		</g>
	</g>
</g>
</svg>
